<?xml version="1.0" encoding="UTF-8"?>
<svg version="1.1" xmlns="http://www.w3.org/2000/svg" width="512" height="512">
<path d="M0 0 C12.08716387 12.70548413 19.02166008 27.12201436 24.77832031 43.5324707 C27.0254249 49.85326229 29.83318794 55.64561391 33.08203125 61.5078125 C34.78705388 65.46201393 34.97990908 68.65011652 33.6171875 72.73828125 C32.00093299 75.00103756 31.04809691 75.69125413 28.3671875 76.48828125 C24.76373737 76.3595866 22.30450915 76.21897889 19.41796875 73.96875 C16.60865177 70.57081422 14.89485425 66.91388204 13.0546875 62.92578125 C12.66297363 62.09167725 12.27125977 61.25757324 11.86767578 60.39819336 C9.17408337 54.54892095 6.88105808 48.62162422 4.7421875 42.55078125 C-1.63821538 24.59895402 -12.70742319 9.29307225 -30.07226562 0.5949707 C-47.84921892 -7.84728827 -66.96429188 -10.01298178 -85.82495117 -3.57861328 C-93.3781549 -0.80967278 -100.14492988 2.68086659 -106.6328125 7.48828125 C-107.68855469 8.26945312 -107.68855469 8.26945312 -108.765625 9.06640625 C-122.7370478 20.35312428 -129.87844427 36.71644012 -133.3203125 53.92578125 C-137.70481994 103.90916609 -99.24934323 160.52442097 -68.6328125 197.48828125 C-67.91609375 198.37773437 -67.199375 199.2671875 -66.4609375 200.18359375 C-62.11395755 205.56485513 -57.64899431 210.7991088 -52.98071289 215.90429688 C-51.56464481 217.46275217 -50.15789147 219.02984804 -48.76953125 220.61303711 C-41.59197187 228.76959976 -33.85024753 236.34772769 -26.1328125 243.98828125 C-23.41120106 246.68333421 -20.69291159 249.3816757 -17.9765625 252.08203125 C-17.3537439 252.69655151 -16.73092529 253.31107178 -16.0892334 253.94421387 C-10.77558174 259.22715294 -10.77558174 259.22715294 -10.2578125 263.80078125 C-10.6328125 267.48828125 -10.6328125 267.48828125 -12.7578125 270.42578125 C-15.6328125 272.48828125 -15.6328125 272.48828125 -18.5703125 273.05078125 C-25.20716398 271.83176771 -29.74158605 266.66651539 -34.31640625 262.03515625 C-34.93500015 261.41610413 -35.55359406 260.797052 -36.19093323 260.15924072 C-37.49335631 258.85380997 -38.79336172 257.5459631 -40.09106445 256.23583984 C-42.05568355 254.25304553 -44.02810465 252.27828983 -46.00195312 250.3046875 C-52.09014265 244.19913154 -58.04961435 238.06416085 -63.6328125 231.48828125 C-65.21145042 229.77560804 -66.79431208 228.06681101 -68.3828125 226.36328125 C-73.61699562 220.61594292 -78.41043781 214.58804214 -83.14257812 208.42431641 C-84.70830048 206.39021118 -86.28712788 204.36673358 -87.8671875 202.34375 C-94.8843517 193.32035418 -101.53253973 184.15694573 -107.6328125 174.48828125 C-108.08446777 173.77430176 -108.53612305 173.06032227 -109.00146484 172.32470703 C-132.42989298 134.9853987 -159.0105125 88.56733664 -149.53515625 42.97583008 C-144.25977741 19.98177255 -130.17639174 0.83036029 -110.46655273 -12.0793457 C-75.46701142 -33.88617484 -29.64559665 -28.13901715 0 0 Z " fill="#000000" transform="translate(321.6328125,152.51171875)"/>
<path d="M0 0 C1.1339621 -0.01058945 1.1339621 -0.01058945 2.29083252 -0.02139282 C34.37066715 -0.25287813 34.37066715 -0.25287813 48.828125 3.203125 C49.66085937 3.40180176 50.49359375 3.60047852 51.3515625 3.80517578 C100.66640583 16.01498955 142.89360221 45.94009448 169.453125 89.453125 C176.84247217 101.92049073 182.74235839 115.10110785 187.44580078 128.79785156 C188.70092869 132.4062457 190.01621269 135.6786994 191.9921875 138.95703125 C194.39427014 143.20411778 194.88301309 146.45154213 193.828125 151.203125 C191.28341278 154.27174856 189.73870519 155.05136163 185.828125 155.703125 C181.99004376 155.06344479 180.63723949 153.89644393 177.828125 151.203125 C176.26025831 148.728234 175.07452319 146.12925332 173.890625 143.453125 C173.54708984 142.70232666 173.20355469 141.95152832 172.84960938 141.17797852 C170.62628102 136.2381114 168.66699295 131.23404252 166.828125 126.140625 C159.53016143 106.00250497 148.43376596 87.84187937 133.828125 72.203125 C133.25433105 71.58550293 132.68053711 70.96788086 132.08935547 70.33154297 C118.7782308 56.15206551 104.12677831 45.0683734 86.828125 36.203125 C86.15168945 35.85266113 85.47525391 35.50219727 84.77832031 35.14111328 C44.62013856 14.56881847 -0.96354733 12.66434778 -43.57568359 26.32763672 C-67.12661657 34.26948792 -87.18766731 47.16094723 -105.171875 64.203125 C-106.06648438 65.04488281 -106.96109375 65.88664062 -107.8828125 66.75390625 C-125.63486648 83.93411535 -139.15695406 106.06120337 -146.87109375 129.53125 C-148.46523898 132.80571046 -150.10060089 134.27497085 -153.171875 136.203125 C-156.02120708 136.62060955 -158.44838734 136.10505923 -161.171875 135.203125 C-163.171875 133.640625 -163.171875 133.640625 -164.171875 131.203125 C-164.67576669 124.67382426 -163.39287229 120.18861872 -160.734375 114.265625 C-160.37311523 113.44078613 -160.01185547 112.61594727 -159.63964844 111.76611328 C-139.30246431 66.08176802 -103.68257751 30.59370358 -57.03515625 12.01953125 C-38.88097254 5.08352302 -19.51885698 0.12191962 0 0 Z " fill="#000000" transform="translate(248.171875,31.796875)"/>
<path d="M0 0 C8.31414689 5.45677023 11.86732346 12.82297645 14.9375 22 C18.22819742 31.27608927 21.87843458 40.01975938 26.53369141 48.68505859 C27.50140974 50.5026478 28.43168223 52.33552823 29.35546875 54.17578125 C41.93833315 78.95177531 59.86641603 102.83123923 80.01171875 121.984375 C82.81399588 124.83813754 83.49125156 126.4081414 83.875 130.4375 C83.78704817 133.42786214 83.58955601 134.36566599 81.875 136.9375 C78.9340868 138.87231132 77.02349544 139.42809193 73.5 139.5 C66.56879107 136.65642711 61.3393148 129.46316624 56.55859375 123.89453125 C55.00418668 122.08646382 53.43045245 120.29498692 51.84765625 118.51171875 C27.63587765 91.06196473 8.51118998 58.60725048 -3.88720703 24.19018555 C-4.20028809 23.33336182 -4.51336914 22.47653809 -4.8359375 21.59375 C-5.10970215 20.82740234 -5.3834668 20.06105469 -5.66552734 19.27148438 C-6.36690548 17.30880982 -6.36690548 17.30880982 -8.5 16.5 C-13.34315669 15.95372702 -13.34315669 15.95372702 -17.5 18.0625 C-20.40358041 25.13997725 -15.32982552 34.27154577 -12.59277344 40.94189453 C2.53615954 76.35765855 23.31934639 108.27938707 49.62109375 136.40234375 C51.9863981 138.93358047 54.28139897 141.51737954 56.5625 144.125 C61.21824712 149.31992372 66.13838621 154.24783489 71.0625 159.1875 C72.26821655 160.40010498 72.26821655 160.40010498 73.49829102 161.63720703 C77.75916731 165.88715913 82.09510683 169.97828511 86.6574707 173.90258789 C89.44533639 176.31957546 92.12159437 178.85134738 94.8125 181.375 C100.51478374 186.67368429 106.42638487 191.63002177 112.5 196.5 C113.73952219 197.51802218 114.97771901 198.53765947 116.21484375 199.55859375 C123.54563007 205.59159395 130.94101598 211.44282098 138.71582031 216.89794922 C142.96314417 219.92255863 146.10256144 222.16504844 147 227.4375 C146.5 230.5 146.5 230.5 144.5 233.375 C141.39093053 235.57725754 139.58144779 236.13152968 135.796875 236.01757812 C130.92268385 234.91922723 127.29027524 231.40914612 123.5 228.3125 C122.58081787 227.58579102 121.66163574 226.85908203 120.71459961 226.11035156 C117.96095199 223.92541023 115.22932718 221.71520165 112.5 219.5 C111.02309291 218.32041475 109.54530723 217.1419282 108.06640625 215.96484375 C104.17544744 212.8520767 100.32722025 209.69071245 96.5 206.5 C95.90670898 206.00580566 95.31341797 205.51161133 94.70214844 205.00244141 C80.13022606 192.81100111 66.4892615 179.66080091 53.08105469 166.21142578 C50.97706263 164.10200343 48.86767965 161.99807561 46.7578125 159.89453125 C45.39030378 158.52636265 44.0231048 157.15788439 42.65625 155.7890625 C42.03947388 155.17431061 41.42269775 154.55955872 40.78723145 153.92617798 C9.95753015 122.9322433 -34.93548156 68.15632192 -36.875 22.4375 C-36.15099458 14.83544307 -34.12921587 8.88446735 -28.5 3.5 C-20.7289686 -2.88576059 -9.25680338 -4.02391258 0 0 Z " fill="#000000" transform="translate(270.5,193.5)"/>
<path d="M0 0 C2.23341198 0.00315111 4.46548162 -0.02037131 6.69873047 -0.0456543 C38.79161024 -0.18553623 70.9027608 11.38476718 95.99951172 31.31567383 C97.52125 32.51643555 97.52125 32.51643555 99.07373047 33.74145508 C107.82412441 40.76641922 107.82412441 40.76641922 108.37451172 45.62817383 C107.99951172 49.31567383 107.99951172 49.31567383 105.93701172 52.25317383 C102.20057535 54.87662915 100.50265155 54.84434433 95.99951172 54.31567383 C93.54968989 52.74225885 91.59181903 51.27844433 89.43701172 49.37817383 C88.20641598 48.35797292 86.97193969 47.34243711 85.73388672 46.33129883 C84.80092773 45.5665625 84.80092773 45.5665625 83.84912109 44.78637695 C57.0525878 23.47931299 21.682599 14.7683956 -12.03344727 18.2121582 C-47.47014263 22.44961357 -80.71820691 40.12521179 -103.00048828 68.31567383 C-125.2106269 97.97075653 -136.04626059 134.0951901 -130.87548828 171.06567383 C-128.20625901 187.99356476 -122.73868689 203.82752212 -116.16430664 219.61108398 C-115.74028564 220.65699707 -115.31626465 221.70291016 -114.87939453 222.78051758 C-114.49340088 223.70469482 -114.10740723 224.62887207 -113.7097168 225.58105469 C-112.85721278 228.86811062 -113.16152548 231.04557062 -114.00048828 234.31567383 C-115.62548828 236.69067383 -115.62548828 236.69067383 -118.00048828 238.31567383 C-121.77211803 238.86427452 -124.0395535 238.83107019 -127.41845703 237.01879883 C-131.40026677 232.85024763 -132.91485594 227.92377923 -134.87548828 222.56567383 C-135.52239624 220.82979004 -135.52239624 220.82979004 -136.18237305 219.05883789 C-152.19586318 175.35268946 -155.96551607 131.51243275 -136.08203125 88.32055664 C-129.7212779 74.68066969 -121.81026805 62.7576125 -112.00048828 51.31567383 C-111.27990234 50.45973633 -110.55931641 49.60379883 -109.81689453 48.72192383 C-104.41932121 42.48729368 -98.5197711 37.34685948 -92.00048828 32.31567383 C-91.05173828 31.56286133 -90.10298828 30.81004883 -89.12548828 30.03442383 C-73.32298223 17.76226487 -55.75316405 9.8729123 -36.56298828 4.44067383 C-35.89106445 4.24965088 -35.21914062 4.05862793 -34.52685547 3.86181641 C-23.10083057 0.82048554 -11.76306517 -0.03451454 0 0 Z " fill="#000000" transform="translate(256.00048828125,63.684326171875)"/>
<path d="M0 0 C0.80308594 0.350625 1.60617187 0.70125 2.43359375 1.0625 C16.69292406 8.17980872 25.54082743 20.49464811 31 35 C40.02828511 58.88406559 51.56788579 80.61158633 67 101 C67.39380859 101.52529297 67.78761719 102.05058594 68.19335938 102.59179688 C79.62884871 117.78592767 92.97395308 131.05851227 106.375 144.5 C106.98673065 145.11450012 107.5984613 145.72900024 108.22872925 146.36212158 C114.64046281 152.79501385 121.04468488 159.14873462 128 165 C129.1185051 165.9724449 130.23572022 166.94637577 131.3515625 167.921875 C132.44207809 168.86531232 133.53323635 169.80800724 134.625 170.75 C135.2118457 171.25877686 135.79869141 171.76755371 136.40332031 172.29174805 C139.51118547 174.96099655 142.65668222 177.52853582 145.9453125 179.97265625 C146.58259277 180.45057617 147.21987305 180.92849609 147.87646484 181.42089844 C149.09199916 182.32375817 150.31846036 183.21215789 151.55712891 184.08300781 C155.7620258 187.21434006 157.19093748 189.84222645 158 195 C155.95454545 200.52272727 155.95454545 200.52272727 153 202 C147.44713611 202.53775103 144.53160402 202.36200403 140.03027344 198.69873047 C139.4840332 198.22064941 138.93779297 197.74256836 138.375 197.25 C137.78235352 196.75773926 137.18970703 196.26547852 136.57910156 195.75830078 C134.70262315 194.19094177 132.85117838 192.59711409 131 191 C129.77973739 189.97005951 128.55839433 188.94139767 127.3359375 187.9140625 C120.43229406 182.08294771 113.67202889 176.09454261 107 170 C106.05253906 169.14535156 105.10507812 168.29070312 104.12890625 167.41015625 C97.45847342 161.35902246 91.00398105 155.10744807 84.625 148.75 C83.87605469 148.00564697 83.12710938 147.26129395 82.35546875 146.49438477 C78.24653954 142.37401134 74.3117517 138.16030574 70.51464844 133.75097656 C68.66769897 131.61585058 66.74011725 129.56228113 64.8125 127.5 C50.62462823 111.74374104 38.97580149 93.65221452 29 75 C28.66790527 74.38640625 28.33581055 73.7728125 27.99365234 73.140625 C22.74184602 63.36302039 18.57463672 53.25658385 14.67602539 42.86743164 C10.2510461 31.34642452 4.76041299 22.26989018 -6.63671875 16.71484375 C-18.35214475 12.05207078 -28.82847379 12.16647564 -40.4765625 17.03515625 C-49.94191021 21.83288404 -56.21466539 29.14586983 -60 39 C-62.53861453 47.01457886 -62.62707679 53.98718009 -60.4375 62.0625 C-59.15118094 66.91988577 -58.4933857 70.17883423 -60 75 C-61.625 77.4375 -61.625 77.4375 -64 79 C-68.23305033 79.69268096 -70.1846767 79.55590225 -73.75 77.125 C-80.43482688 67.84051822 -81.01307146 54.76068503 -79.57421875 43.73828125 C-76.78393318 28.4516247 -69.705163 15.43138196 -57.265625 5.90625 C-40.44622257 -5.30668495 -18.8002466 -8.22341722 0 0 Z " fill="#000000" transform="translate(282,164)"/>
<path d="M0 0 C2.9375 1.9375 2.9375 1.9375 5 5 C5.664642 8.81214204 5.15013876 12.53735792 4.7578125 16.359375 C-3.18865014 93.89758619 45.59513824 173.15511683 92.5 231.125 C103.23392321 244.46631664 103.23392321 244.46631664 114.9375 256.9375 C119.21616493 261.12178261 122.63796877 264.62668413 123.5625 270.6875 C123 274 123 274 121.375 276.375 C118.43721938 278.38506043 116.5603504 278.92733979 113 279 C104.42750975 274.6237368 98.1609254 266.21397158 92 259 C91.11930539 257.99407683 90.23772269 256.98893081 89.35546875 255.984375 C81.47825633 246.96998722 74.13818553 237.60771465 67 228 C66.45166504 227.26201172 65.90333008 226.52402344 65.33837891 225.76367188 C30.56612748 178.74709461 -3.08077442 121.56246014 -12 63 C-12.11279297 62.27522461 -12.22558594 61.55044922 -12.34179688 60.80371094 C-14.65040434 45.29232767 -14.762161 29.59235749 -13.1875 14 C-13.11756836 13.26458984 -13.04763672 12.52917969 -12.97558594 11.77148438 C-12.47533081 7.51831925 -11.58483049 4.43775944 -9 1 C-5.86128812 -0.56935594 -3.46144178 -0.35201103 0 0 Z " fill="#000000" transform="translate(88,182)"/>
<path d="M0 0 C2.5 1.5 2.5 1.5 4 4 C4.66226529 7.7147754 4.6883863 10.69917037 2.90234375 14.07421875 C0.27940633 16.72947162 -2.37331624 17.54941864 -5.875 18.8125 C-16.94894435 22.99512421 -26.98432524 28.26073798 -36 36 C-36.82242188 36.68964844 -37.64484375 37.37929687 -38.4921875 38.08984375 C-58.03838039 54.99225067 -70.61406009 79.76572765 -72.875 105.578125 C-75.38008865 154.11421763 -46.89058179 206.46292731 -18.9765625 244.77734375 C-16.42237259 248.28485807 -14.64045385 250.90435727 -14.375 255.3125 C-15 259 -15 259 -16.5 261.5 C-19.31598381 263.18959029 -21.63506136 263.5184812 -24.90234375 263.62890625 C-30.92279426 261.82389222 -34.48524165 254.6242773 -37.75 249.625 C-38.27730713 248.82336426 -38.80461426 248.02172852 -39.34790039 247.19580078 C-69.03922146 201.77812532 -99.61093943 145.57722361 -88.59082031 89.63378906 C-85.51958132 75.94266249 -80.42666511 62.90213735 -73 51 C-72.64099609 50.42233887 -72.28199219 49.84467773 -71.91210938 49.24951172 C-59.23589317 29.31943624 -26.55071674 -4.34466274 0 0 Z " fill="#000000" transform="translate(229,101)"/>
<path d="M0 0 C0.90740936 0.00215515 1.81481873 0.0043103 2.74972534 0.00653076 C16.00619318 0.05707166 28.88837817 0.42571947 41.875 3.3125 C42.80940918 3.51117676 43.74381836 3.70985352 44.70654297 3.91455078 C65.23598991 8.36298637 84.38022256 15.38996486 102.875 25.3125 C103.52774902 25.65361816 104.18049805 25.99473633 104.85302734 26.34619141 C115.6689753 32.00867379 125.34160216 38.70081468 134.875 46.3125 C135.43783691 46.75819336 136.00067383 47.20388672 136.58056641 47.66308594 C143.58691313 53.25386036 150.07064154 59.3186959 156.4375 65.625 C157.11683594 66.29499023 157.79617188 66.96498047 158.49609375 67.65527344 C167.45878209 76.67645321 167.45878209 76.67645321 168.4375 82.875 C167.875 86.3125 167.875 86.3125 165.75 89.25 C162.875 91.3125 162.875 91.3125 160.0625 92.0625 C152.95656662 90.39051567 148.43648309 83.86202443 143.75 78.625 C128.99389591 62.21272992 110.40904485 49.3976341 90.875 39.3125 C90.27010742 38.99974121 89.66521484 38.68698242 89.04199219 38.36474609 C42.30004314 14.58798145 -11.90781837 11.62641919 -61.57714844 27.45214844 C-66.74961444 29.19877264 -71.862432 31.13949495 -76.91137695 33.21606445 C-81.38624989 34.9855452 -84.3286731 35.72959658 -89.125 34.3125 C-91.97045762 32.54635389 -92.14455037 31.23709142 -93 27.9375 C-93.14421148 23.75536711 -92.63453717 22.58061363 -90.125 19.3125 C-85.73234765 16.74749353 -80.88823288 15.07939739 -76.125 13.3125 C-75.44985352 13.05823242 -74.77470703 12.80396484 -74.07910156 12.54199219 C-65.02332908 9.18183521 -55.86956173 6.6366352 -46.4375 4.5625 C-45.53652588 4.36390381 -44.63555176 4.16530762 -43.70727539 3.96069336 C-29.07228488 0.89229946 -14.90007486 -0.06366171 0 0 Z " fill="#000000" transform="translate(258.125,-0.3125)"/>
<path d="M0 0 C14.85691793 5.11286345 27.7376047 12.65444074 39.77734375 22.6796875 C41.08638672 23.74123047 41.08638672 23.74123047 42.421875 24.82421875 C59.65001371 39.44778845 70.41930626 59.6585406 77.94042969 80.63647461 C86.40614292 104.19008623 100.91223831 124.39658572 117.77734375 142.6796875 C118.42574219 143.41960937 119.07414063 144.15953125 119.7421875 144.921875 C123.39180509 149.08285935 127.09612753 153.01312987 131.125 156.80859375 C132.28612305 157.91835571 132.28612305 157.91835571 133.47070312 159.05053711 C135.0269804 160.53127784 136.59960701 161.99505842 138.18945312 163.43969727 C144.26624301 169.25514174 144.26624301 169.25514174 144.375 174.05078125 C143.77734375 177.6796875 143.77734375 177.6796875 142.15234375 180.1171875 C139.21143055 182.05199882 137.30083919 182.60777943 133.77734375 182.6796875 C129.24070519 180.47017293 125.99034522 177.18375978 122.48046875 173.6484375 C121.88739929 173.05728149 121.29432983 172.46612549 120.68328857 171.85705566 C119.43027921 170.60540384 118.17977818 169.35123656 116.93164062 168.09472656 C115.05420196 166.20669722 113.16649213 164.32942876 111.27734375 162.453125 C104.32259104 155.50675774 97.8028358 148.45967989 91.77734375 140.6796875 C91.26880859 140.03580078 90.76027344 139.39191406 90.23632812 138.72851562 C76.79169873 121.53099687 66.16231526 102.08595581 58.77734375 81.5546875 C50.96331239 59.9834096 37.36334291 41.05287859 17.77734375 28.6796875 C16.875 28.09445313 15.97265625 27.50921875 15.04296875 26.90625 C-0.82281994 17.08661321 -18.11652007 13.01574011 -36.58959961 11.50097656 C-40.61744517 11.11550009 -43.37633965 10.66761189 -46.22265625 7.6796875 C-47.32639003 3.70624589 -47.63809208 1.58968978 -45.91015625 -2.1953125 C-38.02283411 -12.12749593 -10.24594292 -3.30856065 0 0 Z " fill="#000000" transform="translate(297.22265625,101.3203125)"/>
<path d="M0 0 C4.51984827 0.88782734 6.02939771 3.03865962 8.5 6.6875 C10.42372337 10.08112091 12.14321754 13.56792601 13.875 17.0625 C23.38088553 35.7161521 34.51285835 53.26893949 47.5 69.6875 C48.19222656 70.57953125 48.88445312 71.4715625 49.59765625 72.390625 C63.35183685 89.9010808 78.67014861 105.93863261 94.375 121.6875 C94.91506683 122.23024567 95.45513367 122.77299133 96.01156616 123.33218384 C101.99526755 129.3383936 108.05143084 135.17670075 114.5 140.6875 C116.27570221 142.30717817 118.04708307 143.93161718 119.8125 145.5625 C125.21478931 150.48310371 130.80028913 155.11732766 136.5 159.6875 C137.65521193 160.62337212 138.81014633 161.55958689 139.96484375 162.49609375 C147.29328614 168.41933454 154.7219107 174.17815426 162.30932617 179.7668457 C162.94459229 180.23695068 163.5798584 180.70705566 164.234375 181.19140625 C164.79350586 181.60205322 165.35263672 182.0127002 165.92871094 182.43579102 C170.36779166 185.97201955 170.36779166 185.97201955 170.8984375 188.84375 C170.89070312 189.6171875 170.88296875 190.390625 170.875 191.1875 C170.88273438 191.9609375 170.89046875 192.734375 170.8984375 193.53125 C170.5 195.6875 170.5 195.6875 169.4765625 197.40625 C166.33621609 199.44188957 163.16612111 199.93796967 159.5 199.6875 C156.89081846 198.3616222 155.09495566 197.23657066 152.875 195.4375 C151.98276733 194.75675415 151.98276733 194.75675415 151.07250977 194.06225586 C149.19839729 192.62409805 147.34981561 191.15671519 145.5 189.6875 C144.31540651 188.77525652 143.12923321 187.86506043 141.94140625 186.95703125 C134.98007995 181.60127152 128.24344054 175.99773085 121.5703125 170.2890625 C118.82265955 167.94492299 116.01199772 165.68866684 113.1875 163.4375 C106.28577784 157.82168823 99.90857141 151.64855908 93.45605469 145.53027344 C91.11030525 143.32037369 88.73684143 141.14250239 86.35742188 138.96899414 C77.66564567 131.02573512 69.1000677 122.9129158 61.46484375 113.93359375 C59.31034885 111.47070197 57.08260719 109.088509 54.84204102 106.70410156 C48.77849189 100.24482245 42.925351 93.69921095 37.5 86.6875 C36.95085937 85.97851562 36.40171875 85.26953125 35.8359375 84.5390625 C22.14508388 66.77008227 10.28805294 48.3503972 -0.5 28.6875 C-0.93070801 27.90294434 -1.36141602 27.11838867 -1.80517578 26.31005859 C-2.97460261 24.15458072 -4.11821468 21.98793663 -5.25 19.8125 C-5.58539795 19.18915771 -5.9207959 18.56581543 -6.26635742 17.92358398 C-8.40112894 13.70181286 -8.98198559 10.3882771 -8.5 5.6875 C-5.91370196 2.00398461 -4.43024874 0.87022743 0 0 Z " fill="#000000" transform="translate(226.5,255.3125)"/>
<path d="M0 0 C4.17164452 4.26645462 6.62412601 9.70549038 9.375 14.9375 C27.184423 48.12866809 50.05503501 77.98639119 75.63769531 105.52441406 C76.97479792 106.97270227 78.29617145 108.43546152 79.6171875 109.8984375 C86.12573255 117.09227752 92.9003547 124.00571627 99.75 130.875 C100.6373584 131.76695068 101.5247168 132.65890137 102.43896484 133.57788086 C106.88553384 138.01404317 111.38917548 142.30841113 116.15478516 146.39990234 C119.12124025 148.97229539 121.95670367 151.68124929 124.8125 154.375 C130.67044809 159.85574956 136.7330257 164.9899864 143 170 C145.19643369 171.76008711 147.38209416 173.53261028 149.5625 175.3125 C150.55378906 176.11300781 151.54507813 176.91351563 152.56640625 177.73828125 C154.81761423 179.83049541 156.03230841 181.1202431 157 184 C156.82182521 187.38532098 156.64641794 189.9793401 154.8125 192.875 C152.14000274 194.5337914 150.14416347 194.87669947 147 195 C142.05755094 192.96080773 138.43991749 190.06590054 134.5 186.5625 C133.2567807 185.47495137 132.01328355 184.38772029 130.76953125 183.30078125 C130.14127441 182.7485791 129.51301758 182.19637695 128.86572266 181.62744141 C127.11654616 180.10166144 125.35111729 178.59880325 123.57421875 177.10546875 C117.28343664 171.8156464 111.16571459 166.3713139 105.18359375 160.734375 C104.08623398 159.70050659 104.08623398 159.70050659 102.96670532 158.64575195 C95.22974433 151.32137816 87.67095788 143.82247793 80.1484375 136.27880859 C77.84490873 133.96983764 75.53596864 131.66637223 73.2265625 129.36328125 C71.73144953 127.86750859 70.23664619 126.37142636 68.7421875 124.875 C68.06606415 124.20090088 67.3899408 123.52680176 66.69332886 122.83227539 C62.26397476 118.38128569 58.095022 113.75859321 54 109 C52.9784403 107.84339083 51.95528761 106.68818418 50.9296875 105.53515625 C42.82668058 96.35358761 35.29872075 86.82985289 28 77 C27.46906738 76.29004883 26.93813477 75.58009766 26.39111328 74.84863281 C14.18245436 58.47885907 3.32085153 41.31247837 -6.875 23.625 C-7.48851318 22.58529053 -8.10202637 21.54558105 -8.73413086 20.47436523 C-12.00190371 14.69682991 -13.9737276 10.67155549 -13 4 C-9.08918103 -1.08406466 -6.14710256 -1.48378338 0 0 Z " fill="#000000" transform="translate(152,313)"/>
<path d="M0 0 C4.67634151 4.59443107 7.15865138 10.005471 9.9375 15.875 C24.09794307 44.82845836 41.92011683 72.7567183 62 98 C62.51578613 98.65033203 63.03157227 99.30066406 63.56298828 99.97070312 C67.32226872 104.69150267 71.1406766 109.36072707 75 114 C75.49467773 114.59522461 75.98935547 115.19044922 76.49902344 115.80371094 C85.87898814 127.03836472 95.74123749 137.8787107 106.18359375 148.13671875 C106.86446045 148.80646729 107.54532715 149.47621582 108.24682617 150.16625977 C109.54551657 151.43614314 110.85128391 152.69884482 112.1652832 153.95288086 C115.65752306 157.35641983 118.20767321 160.3621909 120 165 C119.87669947 168.14416347 119.5337914 170.14000274 117.875 172.8125 C114.93335319 174.67554298 112.44947304 174.88105265 109 175 C105.48115815 173.21285529 102.80932813 171.05754161 100.0390625 168.26953125 C99.31976563 167.54830078 98.60046875 166.82707031 97.859375 166.08398438 C97.12203125 165.33439453 96.3846875 164.58480469 95.625 163.8125 C94.89539063 163.08224609 94.16578125 162.35199219 93.4140625 161.59960938 C89.34666235 157.49952476 85.4549067 153.30040332 81.68408203 148.92700195 C78.91969184 145.76386311 76.01405878 142.73629625 73.125 139.6875 C67.46712364 133.66435889 62.13565139 127.47731811 57 121 C56.08207549 119.87260041 55.1627203 118.74636466 54.2421875 117.62109375 C33.69069569 92.39571818 15.79973026 65.04398655 0.32080078 36.44042969 C-0.61166424 34.71752389 -1.5486203 32.99704508 -2.48876953 31.27832031 C-4.025601 28.46281788 -5.54605593 25.63902718 -7.0625 22.8125 C-7.77889648 21.50285278 -7.77889648 21.50285278 -8.50976562 20.16674805 C-11.05032929 15.37722921 -12.805367 11.45667504 -13 6 C-10.40634736 0.31866565 -6.21528891 -1.78059628 0 0 Z " fill="#000000" transform="translate(87,327)"/>
<path d="M0 0 C3.82882618 3.56499109 7.33373447 7.46327368 10.875 11.3125 C11.40383789 11.88572998 11.93267578 12.45895996 12.47753906 13.04956055 C15.28200838 16.09862568 18.04653601 19.17299343 20.75 22.3125 C23.6898236 25.71613072 26.83962689 28.85737638 30.04296875 32.01171875 C31.88730986 33.88551042 33.60632066 35.81313471 35.3125 37.8125 C41.69917911 45.21988125 48.73728223 52.04402142 56.171875 58.390625 C58.02937988 60.02586434 59.76606009 61.73481793 61.5 63.5 C65.163033 67.21209147 69.04807348 70.60022648 73 74 C74.15291123 75.00455742 75.30520135 76.00982791 76.45703125 77.015625 C85.05035954 84.51059121 93.70504833 91.9013421 102.71875 98.890625 C103.35611084 99.3861084 103.99347168 99.8815918 104.65014648 100.39208984 C105.89884644 101.36037831 107.15083262 102.3244478 108.40649414 103.28369141 C112.36032768 106.34475998 114.77172002 108.23898304 115.4375 113.375 C115 117 115 117 112.875 119.9375 C110 122 110 122 107.0625 122.5625 C100.56731567 121.36950696 95.30132458 115.91935559 90.3125 111.8125 C89.25639526 110.94757935 89.25639526 110.94757935 88.17895508 110.06518555 C86.76730506 108.90896929 85.35639946 107.75184347 83.94628906 106.59375 C82.2701503 105.2212169 80.58512618 103.85954755 78.8984375 102.5 C73.26858127 97.95717653 67.86773235 93.22480465 62.54296875 88.328125 C60.42932946 86.39305738 58.29340152 84.49791703 56.125 82.625 C45.8477457 73.6696013 36.06003313 64.22422854 26.44091797 54.57128906 C24.60889005 52.7338424 22.77149395 50.9018835 20.93359375 49.0703125 C15.07348444 43.21351206 9.3710249 37.31377123 4 31 C2.31761292 29.16197359 0.63068253 27.32808651 -1.0625 25.5 C-13.13759176 12.19162905 -13.13759176 12.19162905 -13 6 C-11.76356597 3.13667909 -10.66847461 1.50711867 -8.1875 -0.375 C-5.03854906 -1.27470027 -3.13041888 -0.95829149 0 0 Z " fill="#000000" transform="translate(229,373)"/>
<path d="M0 0 C11.6136908 5.68833835 18.16857282 27.84277148 22.6171875 39.24609375 C30.64121253 59.79594839 41.06566634 77.22218116 55.4921875 93.98828125 C55.92136475 94.49069336 56.35054199 94.99310547 56.79272461 95.51074219 C57.69281453 96.55328636 58.60586052 97.58474352 59.52954102 98.60644531 C63.79602231 103.43516431 63.79602231 103.43516431 63.66796875 107.15625 C63.10546875 111.03125 63.10546875 111.03125 61.60546875 113.53125 C58.06889622 115.65319352 55.0467707 115.97567519 51.10546875 115.03125 C44.40893769 111.35559851 39.69626309 103.91708261 35.10546875 98.03125 C34.38359375 97.12503906 33.66171875 96.21882813 32.91796875 95.28515625 C21.40069824 80.45667047 12.94910233 64.60710107 6.21875 47.1484375 C1.58756224 35.19465673 -3.67124567 24.09201887 -10.65625 13.3125 C-12.52373629 9.87208361 -11.9668125 7.7172168 -10.89453125 4.03125 C-7.84440113 0.33412258 -4.83649355 -0.94370606 0 0 Z " fill="#000000" transform="translate(379.89453125,124.96875)"/>
<path d="M0 0 C6.65974438 1.18924007 10.41447748 7.9112966 14.4375 13 C24.31931396 25.29190977 35.25458924 36.45511777 46.375 47.625 C47.25478516 48.50953857 48.13457031 49.39407715 49.04101562 50.30541992 C56.69828092 57.94309214 64.72848959 64.8766658 73.1796875 71.609375 C76.55889416 74.54484745 77.44557905 76.05358001 77.875 80.5625 C77.78704817 83.55286214 77.58955601 84.49066599 75.875 87.0625 C72.9340868 88.99731132 71.02349544 89.55309193 67.5 89.625 C63.73814618 87.68875171 60.78387516 85.23627075 57.6875 82.375 C54.71535801 79.64043542 51.72332603 76.93900432 48.67578125 74.2890625 C36.1456666 63.35112363 24.41943368 51.69128282 13.17431641 39.44335938 C11.75711268 37.90423232 10.32366363 36.38008796 8.88671875 34.859375 C4.45561357 30.10557833 0.38659605 25.0941917 -3.5625 19.9375 C-4.05274658 19.3192334 -4.54299316 18.7009668 -5.0480957 18.06396484 C-8.18475883 13.85963309 -9.23370498 11.03607424 -8.5 5.625 C-5.90783917 1.93313458 -4.45850936 0.79616239 0 0 Z " fill="#000000" transform="translate(364.5,238.375)"/>
<path d="M0 0 C2.4375 1.625 2.4375 1.625 4 4 C4.5782883 7.97573209 4.61292122 10.0885876 2.34765625 13.45703125 C-0.2422171 16.26236827 -2.87221141 18.15673653 -6.0625 20.25 C-20.2740018 29.79303747 -33.52249331 41.11411073 -44.0625 54.6484375 C-44.76375 55.54820313 -45.465 56.44796875 -46.1875 57.375 C-46.82042969 58.20773438 -47.45335938 59.04046875 -48.10546875 59.8984375 C-50.02333137 62.02588098 -51.3163248 63.05437429 -54 64 C-57.3568842 63.82332188 -59.96417908 63.62149255 -62.875 61.875 C-64.64983667 58.91693888 -64.88200002 56.42199954 -65 53 C-62.85095414 48.68738769 -59.75738278 45.12608735 -56.625 41.5 C-56.10043213 40.89196533 -55.57586426 40.28393066 -55.03540039 39.6574707 C-43.90336281 26.90994418 -31.66197921 16.12342295 -18.0625 6.0625 C-17.42328613 5.58925293 -16.78407227 5.11600586 -16.12548828 4.62841797 C-7.28808257 -1.82202064 -7.28808257 -1.82202064 0 0 Z " fill="#000000" transform="translate(151,33)"/>
<path d="M0 0 C2.13953465 1.8430931 4.05142537 3.80881748 5.984375 5.8671875 C9.10511099 9.16936163 12.54313642 12.057864 16 15 C17.43666016 16.23556641 17.43666016 16.23556641 18.90234375 17.49609375 C27.86580214 25.17411638 37.03702417 32.58627743 46.515625 39.62109375 C47.07113037 40.03343262 47.62663574 40.44577148 48.19897461 40.87060547 C49.71865171 41.99317524 51.24391548 43.10817076 52.76953125 44.22265625 C55 46 55 46 56 48 C56.56872038 55.0521327 56.56872038 55.0521327 54.5 58.5 C51.7388767 60.15667398 49.56971963 60.8088166 46.33203125 60.640625 C41.1305054 59.21173013 37.10632176 55.35292099 33 52 C32.16210938 51.34128906 31.32421875 50.68257813 30.4609375 50.00390625 C27.95399033 48.02620348 25.47492029 46.01759806 23 44 C22.14921875 43.31292969 21.2984375 42.62585938 20.421875 41.91796875 C13.40972917 36.22828902 6.52278665 30.40046552 -0.29101562 24.47558594 C-1.93695395 23.05443576 -3.59942896 21.65510358 -5.265625 20.2578125 C-6.25046875 19.40960938 -7.2353125 18.56140625 -8.25 17.6875 C-9.12140625 16.94886719 -9.9928125 16.21023438 -10.890625 15.44921875 C-13.50903013 12.40895946 -14.26880321 9.92065026 -15 6 C-13.83966553 2.38248667 -12.91972312 0.61314875 -9.75 -1.5 C-6.00609983 -2.18070912 -3.30431818 -1.78926773 0 0 Z " fill="#000000" transform="translate(375,340)"/>
<path d="M0 0 C3.15760777 2.96025729 5.52434908 6.46456701 8 10 C8.43441406 10.62036133 8.86882812 11.24072266 9.31640625 11.87988281 C13.4247711 17.74774933 13.4247711 17.74774933 15.21655273 20.32055664 C18.87102807 25.52416824 22.71989012 30.51995652 26.75 35.4375 C27.29390381 36.10136719 27.83780762 36.76523437 28.39819336 37.44921875 C30.7644211 40.3228817 33.15017945 43.17650664 35.5625 46.01171875 C36.284375 46.87410156 37.00625 47.73648438 37.75 48.625 C38.36359375 49.33914063 38.9771875 50.05328125 39.609375 50.7890625 C41.34555492 53.54939349 41.7558004 55.76435535 42 59 C40.39588152 62.52906067 39.25840638 63.82772908 36 66 C32.15785056 66.59766769 30.47801722 66.30805554 27.1875 64.1875 C22.61214165 59.92971151 18.85246531 54.90007734 15 50 C14.47841309 49.34273926 13.95682617 48.68547852 13.41943359 48.00830078 C-13.46811646 14.10931096 -13.46811646 14.10931096 -13.2578125 5.9375 C-12.89837245 3.2362536 -11.98531837 1.83825775 -10 0 C-5.92595465 -1.35801512 -4.14832112 -1.29210002 0 0 Z " fill="#000000" transform="translate(101,413)"/>
<path d="M0 0 C3.02734375 1.94921875 3.02734375 1.94921875 5.9375 4.6875 C7.05361183 5.70197996 8.17360586 6.71220062 9.296875 7.71875 C9.88919922 8.25371094 10.48152344 8.78867187 11.09179688 9.33984375 C14.48913243 12.29556046 18.09182138 14.97964326 21.6875 17.6875 C23.13058826 18.78074868 24.57330629 19.87448626 26.015625 20.96875 C26.69560547 21.484375 27.37558594 22 28.07617188 22.53125 C38.45493562 30.45493562 38.45493562 30.45493562 42 34 C42.31931774 37.95953995 42.50486436 40.76939313 41 44.4375 C37.9805497 46.79644555 34.73458143 47.14712249 31 47 C28.42366694 45.71796759 26.68408273 44.63899143 24.5 42.875 C23.91105957 42.42705078 23.32211914 41.97910156 22.71533203 41.51757812 C20.7884458 40.03745488 18.89293156 38.52325539 17 37 C16.33838867 36.47438477 15.67677734 35.94876953 14.99511719 35.40722656 C10.93056245 32.17392498 6.90781708 28.89337946 2.90869141 25.57958984 C1.0633517 24.05242843 -0.78949571 22.53489097 -2.64453125 21.01953125 C-3.74251307 20.11758368 -4.84018814 19.21526252 -5.9375 18.3125 C-6.89527344 17.52488281 -7.85304688 16.73726563 -8.83984375 15.92578125 C-11.92704418 13.17353928 -11.96973326 12.37530753 -12.3125 8.125 C-12.25340627 5.17031347 -12.06564964 4.10941607 -10.5 1.5 C-7.05518098 -0.56689141 -3.88011397 -0.63917497 0 0 Z " fill="#000000" transform="translate(331,430)"/>
<path d="M0 0 C2.62767435 0.71545887 3.8968032 1.80915579 5.89160156 3.65307617 C6.58543945 4.28753662 7.27927734 4.92199707 7.99414062 5.57568359 C8.69764648 6.23673096 9.40115234 6.89777832 10.12597656 7.57885742 C10.79081055 8.19543213 11.45564453 8.81200684 12.140625 9.44726562 C14.81649356 11.94116723 17.47043402 14.4578845 20.12597656 16.97338867 C24.11586398 20.73728637 28.16958924 24.38539103 32.36425781 27.9206543 C35.23301016 30.62084359 36.97556669 32.56896255 37.56347656 36.51635742 C36.99554492 40.49187895 36.23104883 42.00391945 33.12597656 44.57885742 C29.80464956 45.91740947 27.49331834 45.75986715 24.12597656 44.57885742 C19.8491811 41.59073856 16.2453561 37.76101052 12.60058594 34.05297852 C10.75504004 32.20804372 8.80665488 30.51207297 6.81347656 28.82885742 C3.36442267 25.84549857 0.13493063 22.68570954 -3.04199219 19.41479492 C-5.00167396 17.39487958 -5.00167396 17.39487958 -7.87402344 15.07885742 C-9.96252461 12.46823096 -10.25407924 11.71207354 -10.43652344 8.51635742 C-9.87402344 4.57885742 -9.87402344 4.57885742 -8.37402344 2.07885742 C-5.55448841 0.38713641 -3.29816399 -0.16869919 0 0 Z " fill="#000000" transform="translate(227.8740234375,467.421142578125)"/>
</svg>
